<?xml version="1.0" encoding="UTF-8" standalone="no"?>
<!-- Generator: Gravit.io -->
<svg xmlns="http://www.w3.org/2000/svg" xmlns:xlink="http://www.w3.org/1999/xlink" style="isolation:isolate" viewBox="0 0 48 47.998" width="48pt" height="47.998pt"><defs><clipPath id="_clipPath_lgxhy0aOP2jEAmmBVm70dXCWueBNfl1m"><rect width="48" height="47.998"/></clipPath></defs><g clip-path="url(#_clipPath_lgxhy0aOP2jEAmmBVm70dXCWueBNfl1m)"><g><path d=" M 23.998 43.882 C 18.508 49.37 9.607 49.37 4.117 43.882 C -1.373 38.391 -1.373 29.489 4.117 23.999 C 7.248 20.868 11.489 19.523 15.573 19.963 C 18.651 20.295 21.639 21.64 23.998 23.999 C 29.488 29.489 29.488 38.391 23.998 43.882 Z " fill="rgb(160,195,255)"/><path d=" M 43.882 24 C 49.372 29.49 49.372 38.392 43.882 43.882 C 38.391 49.37 29.488 49.37 23.998 43.882 C 18.508 38.392 18.508 29.49 23.998 24 C 29.488 18.51 38.391 18.51 43.882 24 Z " fill="rgb(66,133,244)"/><g style="mix-blend-mode:multiply;"><path d=" M 43.882 24 C 38.391 18.51 29.488 18.51 23.998 24 C 23.94 24.059 23.891 24.123 23.834 24.183 L 43.699 44.048 C 43.758 43.99 43.823 43.941 43.882 43.883 C 49.372 38.392 49.372 29.49 43.882 24 Z " fill="rgb(186,186,186)"/></g><path d=" M 43.882 24 C 38.391 29.49 29.488 29.49 23.998 24 C 18.508 18.51 18.508 9.606 23.998 4.118 C 29.488 -1.373 38.391 -1.373 43.882 4.118 C 49.372 9.606 49.372 18.51 43.882 24 Z " fill="rgb(160,195,255)"/><path d=" M 43.852 24.043 C 38.362 29.533 29.461 29.533 23.971 24.043 C 18.48 18.554 18.48 9.651 23.971 4.161 C 29.461 -1.329 38.362 -1.329 43.852 4.161 C 49.342 9.651 49.342 18.554 43.852 24.043 Z " fill="rgb(118,167,250)"/><g style="mix-blend-mode:multiply;"><path d=" M 43.883 24 L 24 4.117 L 24 23.999 C 29 29.489 38.393 29.489 43.883 24 Z " fill="rgb(240,240,240)"/></g><path d=" M 23.998 24 L 23.998 24 C 29.488 18.51 29.488 9.606 23.998 4.118 C 18.508 -1.373 9.607 -1.373 4.117 4.118 C -1.373 9.606 -1.373 18.51 4.117 24 C 9.607 18.51 18.508 18.51 23.998 24 Z " fill="rgb(160,195,255)"/><g opacity="0.399994"><path d=" M 23.998 24 L 23.998 24 C 29.488 18.51 29.488 9.607 23.998 4.118 C 18.508 -1.372 9.607 -1.372 4.117 4.118 C -1.373 9.607 -1.373 18.51 4.117 24 C 9.607 18.51 18.508 18.51 23.998 24 Z " fill="rgb(255,255,255)"/></g></g></g></svg>