<?xml version="1.0" encoding="UTF-8" standalone="no"?>
<svg xmlns="http://www.w3.org/2000/svg" xmlns:xlink="http://www.w3.org/1999/xlink" style="isolation:isolate" viewBox="0 0 154 154" width="154pt" height="154pt"><defs><clipPath id="_clipPath_OjvKXydDVwEp54v2Sbb6GSZOIxOhPV77"><rect width="154" height="154"/></clipPath></defs><g clip-path="url(#_clipPath_OjvKXydDVwEp54v2Sbb6GSZOIxOhPV77)"><path d=" M 47.765 12.265 C 50.375 14.875 53.507 18.007 56.64 21.662 C 59.772 20.096 63.426 19.051 67.081 18.529 C 67.603 13.831 68.647 9.654 69.691 6.522 C 71.779 6 74.39 6 77 6 C 79.61 6 81.699 6 84.309 6.522 C 85.353 9.654 85.875 13.831 86.919 18.529 C 90.574 19.051 94.228 20.096 97.36 21.662 C 100.493 18.007 103.103 14.875 105.713 12.265 C 110.412 14.353 114.588 16.441 118.765 19.574 C 117.721 23.228 116.154 26.882 114.588 31.581 C 117.721 33.669 119.809 36.279 122.419 39.412 C 126.596 37.324 130.772 36.279 134.426 35.235 C 137.037 39.412 139.647 43.588 141.735 47.765 C 139.125 50.375 135.993 53.507 132.338 56.64 C 133.382 59.772 134.426 63.426 134.949 67.081 C 139.647 67.603 143.824 68.647 147.478 69.691 C 147.478 71.779 148 74.39 148 77 C 148 79.61 147.478 81.699 147.478 84.309 C 143.824 85.353 139.647 85.875 134.949 86.919 C 134.426 90.574 133.382 94.228 132.338 97.36 C 135.993 100.493 139.125 103.103 141.735 105.713 C 139.647 110.412 137.037 114.588 134.426 118.765 C 130.772 117.721 126.596 116.154 122.419 114.588 C 119.809 117.721 117.721 119.809 114.588 122.419 C 116.154 126.596 117.721 130.772 118.765 134.426 C 114.588 137.037 110.412 139.647 105.713 141.735 C 103.103 139.125 100.493 135.993 97.36 132.338 C 94.228 133.382 90.574 134.426 86.919 134.949 C 85.875 139.647 85.353 143.824 84.309 147.478 C 81.699 147.478 79.61 148 77 148 C 74.39 148 71.779 147.478 69.691 147.478 C 68.647 143.824 67.603 139.647 67.081 134.949 C 63.426 134.426 59.772 133.382 56.64 132.338 C 53.507 135.993 50.375 139.125 47.765 141.735 C 43.588 139.647 39.412 137.037 35.235 134.426 C 36.279 130.772 37.324 126.596 39.412 122.419 C 36.279 119.809 33.669 117.721 31.581 114.588 C 26.882 116.154 23.228 117.721 19.574 118.765 C 16.441 114.588 14.353 110.412 12.265 105.713 C 14.875 103.103 18.007 100.493 21.662 97.36 C 20.096 94.228 19.051 90.574 18.529 86.919 C 13.831 85.875 9.654 85.353 6.522 84.309 C 6 81.699 6 79.61 6 77 C 6 74.39 6 71.779 6.522 69.691 C 9.654 68.647 13.831 67.603 18.529 67.081 C 19.051 63.426 20.096 59.772 21.662 56.64 C 18.007 53.507 14.875 50.375 12.265 47.765 C 14.353 43.588 16.441 39.412 19.574 35.235 C 23.228 36.279 26.882 37.324 31.581 39.412 C 33.669 36.279 36.279 33.669 39.412 31.581 C 37.324 26.882 36.279 23.228 35.235 19.574 C 39.412 16.441 43.588 14.353 47.765 12.265 Z  M 77 39.412 C 97.882 39.412 114.588 56.118 114.588 77 C 114.588 97.882 97.882 114.588 77 114.588 C 56.118 114.588 39.412 97.882 39.412 77 C 39.412 56.118 56.118 39.412 77 39.412 Z " fill-rule="evenodd" fill="rgb(31,98,140)"/><path d=" M 76.998 99.408 C 70.811 105.593 60.779 105.593 54.592 99.408 C 48.405 93.219 48.405 83.187 54.592 77 C 60.779 70.813 70.811 70.813 76.998 77 C 83.185 83.187 83.185 93.219 76.998 99.408 Z " fill="rgb(160,195,255)"/><path d=" M 99.407 77 C 105.594 83.187 105.594 93.22 99.407 99.408 C 93.219 105.593 83.185 105.593 76.998 99.408 C 70.811 93.22 70.811 83.187 76.998 77 C 83.185 70.813 93.219 70.813 99.407 77 Z " fill="rgb(66,133,244)"/><g style="mix-blend-mode:multiply;"><path d=" M 99.407 77 C 93.219 70.813 83.185 70.813 76.998 77 C 76.932 77.066 76.877 77.139 76.813 77.206 L 99.201 99.594 C 99.267 99.529 99.34 99.473 99.407 99.408 C 105.594 93.22 105.594 83.187 99.407 77 Z " fill="rgb(186,186,186)"/></g><path d=" M 99.407 77 C 93.219 83.187 83.185 83.187 76.998 77 C 70.811 70.813 70.811 60.779 76.998 54.593 C 83.185 48.406 93.219 48.406 99.407 54.593 C 105.594 60.779 105.594 70.813 99.407 77 Z " fill="rgb(160,195,255)"/><path d=" M 99.373 77.049 C 93.186 83.237 83.154 83.237 76.967 77.049 C 70.779 70.863 70.779 60.83 76.967 54.643 C 83.154 48.455 93.186 48.455 99.373 54.643 C 105.56 60.83 105.56 70.863 99.373 77.049 Z " fill="rgb(118,167,250)"/><g style="mix-blend-mode:multiply;"><path d=" M 99.408 77.001 L 77 54.593 L 77 77 C 82.635 83.187 93.221 83.187 99.408 77.001 Z " fill="rgb(240,240,240)"/></g><path d=" M 76.998 77 L 76.998 77 C 83.185 70.813 83.185 60.779 76.998 54.593 C 70.811 48.406 60.779 48.406 54.592 54.593 C 48.405 60.779 48.405 70.813 54.592 77 C 60.779 70.813 70.811 70.813 76.998 77 Z " fill="rgb(160,195,255)"/><g opacity="0.399994"><path d=" M 76.998 77 L 76.998 77 C 83.185 70.813 83.185 60.779 76.998 54.593 C 70.811 48.406 60.779 48.406 54.592 54.593 C 48.405 60.779 48.405 70.813 54.592 77 C 60.779 70.813 70.811 70.813 76.998 77 Z " fill="rgb(255,255,255)"/></g></g></svg>