<?xml version="1.0" encoding="UTF-8" standalone="no"?>
<svg xmlns="http://www.w3.org/2000/svg" xmlns:xlink="http://www.w3.org/1999/xlink" style="isolation:isolate" viewBox="0 0 128 128" width="128pt" height="128pt"><defs><clipPath id="_clipPath_fk4lIv5rcWHjihFn4EtOTvJt1ai4wPC2"><rect width="128" height="128"/></clipPath></defs><g clip-path="url(#_clipPath_fk4lIv5rcWHjihFn4EtOTvJt1ai4wPC2)"><path d=" M 63.998 90.718 C 56.621 98.093 44.661 98.093 37.284 90.718 C 29.907 83.339 29.907 71.377 37.284 64 C 44.661 56.623 56.621 56.623 63.998 64 C 71.375 71.377 71.375 83.339 63.998 90.718 Z " fill="rgb(160,195,255)"/><path d=" M 90.716 64 C 98.093 71.378 98.093 83.34 90.716 90.718 C 83.338 98.093 71.375 98.093 63.998 90.718 C 56.621 83.34 56.621 71.378 63.998 64 C 71.375 56.623 83.338 56.623 90.716 64 Z " fill="rgb(66,133,244)"/><g style="mix-blend-mode:multiply;"><path d=" M 90.716 64 C 83.338 56.623 71.375 56.623 63.998 64 C 63.92 64.08 63.854 64.166 63.777 64.246 L 90.47 90.94 C 90.55 90.862 90.637 90.796 90.716 90.718 C 98.093 83.34 98.093 71.378 90.716 64 Z " fill="rgb(186,186,186)"/></g><path d=" M 90.716 64 C 83.338 71.378 71.375 71.378 63.998 64 C 56.621 56.623 56.621 44.66 63.998 37.284 C 71.375 29.907 83.338 29.907 90.716 37.284 C 98.093 44.66 98.093 56.623 90.716 64 Z " fill="rgb(160,195,255)"/><path d=" M 90.676 64.059 C 83.299 71.437 71.338 71.437 63.961 64.059 C 56.583 56.683 56.583 44.72 63.961 37.343 C 71.338 29.966 83.299 29.966 90.676 37.343 C 98.053 44.72 98.053 56.683 90.676 64.059 Z " fill="rgb(118,167,250)"/><g style="mix-blend-mode:multiply;"><path d=" M 90.718 64.002 L 64.001 37.284 L 64.001 64 C 70.719 71.378 83.341 71.378 90.718 64.002 Z " fill="rgb(240,240,240)"/></g><path d=" M 63.998 64 L 63.998 64 C 71.375 56.623 71.375 44.66 63.998 37.284 C 56.621 29.907 44.661 29.907 37.284 37.284 C 29.907 44.66 29.907 56.623 37.284 64 C 44.661 56.623 56.621 56.623 63.998 64 Z " fill="rgb(160,195,255)"/><g opacity="0.399994"><path d=" M 63.998 64 L 63.998 64 C 71.375 56.623 71.375 44.66 63.998 37.284 C 56.621 29.907 44.661 29.907 37.284 37.284 C 29.907 44.66 29.907 56.623 37.284 64 C 44.661 56.623 56.621 56.623 63.998 64 Z " fill="rgb(255,255,255)"/></g><path d=" M 115.717 62.92 C 112.834 62.32 110.311 61.12 109.591 57.64 C 108.99 54.16 111.753 52.84 114.516 51.28 C 115.357 50.8 115.958 50.32 116.198 49.84 C 115.958 49 115.717 48.16 115.477 47.32 C 114.877 46.96 114.156 46.72 112.954 46.84 C 109.951 47.2 107.188 46.84 105.506 43.72 C 103.824 40.6 106.107 38.56 108.149 36.16 C 108.75 35.44 109.11 34.84 109.23 34.48 C 108.75 33.76 108.149 32.92 107.669 32.2 C 107.068 32.08 106.227 32.2 105.266 32.56 C 102.503 33.76 99.74 34.36 97.217 31.84 C 94.694 29.44 96.136 26.68 97.457 23.8 C 97.818 23.08 97.938 22.36 97.938 22 C 97.217 21.4 96.376 20.8 95.535 20.2 C 94.934 20.32 94.334 20.68 93.613 21.28 C 91.451 23.32 88.928 24.64 85.804 23.08 C 82.681 21.52 83.161 18.52 83.522 15.4 C 83.642 14.56 83.522 13.96 83.522 13.6 C 82.561 13.24 81.6 12.88 80.638 12.52 C 80.158 12.76 79.677 13.36 79.197 14.08 C 77.755 16.6 75.833 18.76 72.349 18.28 C 68.865 17.8 68.505 14.8 67.784 11.8 C 67.664 11.08 67.424 10.48 67.184 10.12 C 66.222 10 65.141 10 64.06 10 C 64.06 10 64.06 10 64.06 10 C 63.7 10.48 63.339 11.08 63.219 11.92 C 62.618 14.8 61.417 17.32 57.933 18.04 C 54.449 18.64 53.128 15.88 51.566 13.12 C 51.206 12.52 50.845 12.04 50.485 11.68 C 49.404 11.92 48.443 12.28 47.482 12.52 C 47.241 13 47.121 13.72 47.241 14.56 C 47.602 17.56 47.241 20.32 44.118 22 C 40.994 23.68 38.952 21.4 36.549 19.36 C 35.949 18.88 35.468 18.52 35.108 18.4 C 34.267 19 33.306 19.6 32.465 20.2 C 32.465 20.8 32.585 21.4 32.945 22.24 C 34.147 25 34.747 27.76 32.225 30.28 C 29.822 32.8 27.059 31.36 24.176 30.04 C 23.455 29.68 22.854 29.56 22.494 29.56 C 21.773 30.4 21.172 31.12 20.572 31.96 C 20.692 32.56 21.052 33.16 21.653 33.76 C 23.695 35.92 25.017 38.44 23.455 41.56 C 21.893 44.68 18.89 44.2 15.766 43.84 C 14.925 43.72 14.325 43.84 13.844 43.84 C 13.484 44.8 13.123 45.64 12.763 46.6 C 13.123 47.32 13.604 47.92 14.445 48.4 C 16.968 49.84 19.13 51.76 18.65 55.24 C 18.169 58.72 15.166 59.08 12.042 59.8 C 11.201 60.04 10.601 60.28 10.12 60.52 C 10 61.48 10 62.44 10 63.4 C 10.481 63.88 11.081 64.24 12.162 64.48 C 15.046 65.08 17.568 66.28 18.289 69.76 C 18.89 73.24 16.127 74.56 13.364 76.12 C 12.523 76.6 12.042 77.08 11.682 77.44 C 11.922 78.28 12.162 79.12 12.403 79.96 C 13.003 80.32 13.724 80.56 14.925 80.32 C 17.929 79.96 20.692 80.32 22.374 83.44 C 24.056 86.56 21.773 88.6 19.731 91 C 19.01 91.84 18.65 92.44 18.529 92.92 C 19.01 93.64 19.37 94.24 19.851 94.96 C 20.452 95.08 21.413 95.08 22.494 94.6 C 25.257 93.4 28.02 92.8 30.543 95.32 C 33.066 97.72 31.624 100.48 30.303 103.36 C 29.822 104.44 29.702 105.16 29.702 105.76 C 30.303 106.24 30.903 106.72 31.504 107.08 C 32.225 107.08 33.066 106.84 34.027 105.88 C 36.189 103.84 38.712 102.52 41.835 104.08 C 44.959 105.64 44.478 108.64 44.118 111.76 C 43.998 113.08 44.118 113.8 44.358 114.28 C 44.959 114.52 45.56 114.76 46.28 115 C 47.001 114.88 47.842 114.28 48.563 113.08 C 50.004 110.56 51.927 108.4 55.41 108.88 C 58.894 109.36 59.255 112.36 59.976 115.48 C 60.216 116.8 60.696 117.52 61.057 117.88 C 61.657 117.88 62.258 117.88 62.979 118 C 63.58 117.64 64.3 116.92 64.541 115.48 C 65.141 112.6 66.343 110.08 69.826 109.36 C 73.31 108.76 74.632 111.52 76.194 114.28 C 76.914 115.48 77.515 115.96 77.996 116.2 C 78.596 116.08 79.197 115.84 79.677 115.72 C 80.158 115.24 80.638 114.28 80.518 112.72 C 80.158 109.72 80.518 106.96 83.642 105.28 C 86.765 103.6 88.808 105.88 91.21 107.92 C 92.171 108.88 93.012 109.12 93.493 109.24 C 93.973 108.88 94.454 108.52 95.055 108.16 C 95.295 107.56 95.535 106.48 94.814 105.16 C 93.613 102.4 93.012 99.64 95.535 97.12 C 97.938 94.6 100.701 96.04 103.584 97.36 C 104.785 97.84 105.626 97.96 106.107 97.84 C 106.467 97.36 106.948 96.76 107.308 96.28 C 107.308 95.56 107.188 94.6 106.107 93.52 C 104.065 91.36 102.743 88.84 104.305 85.72 C 105.867 82.6 108.87 83.08 111.993 83.44 C 113.195 83.56 114.036 83.44 114.516 83.2 C 114.756 82.48 114.997 81.88 115.237 81.16 C 114.997 80.44 114.516 79.72 113.315 79 C 110.792 77.56 108.63 75.64 109.11 72.16 C 109.591 68.68 112.594 68.32 115.717 67.6 C 116.799 67.36 117.519 67 117.88 66.76 C 117.88 65.92 117.88 65.2 118 64.36 C 117.76 63.76 117.039 63.16 115.717 62.92 Z  M 21.893 63.94 C 21.893 40.726 40.761 21.88 64 21.88 C 87.239 21.88 106.107 40.726 106.107 63.94 C 106.107 87.154 87.239 106 64 106 C 40.761 106 21.893 87.154 21.893 63.94 Z " fill-rule="evenodd" fill="rgb(98,151,208)"/></g></svg>